<?xml version="1.0" standalone="no"?>
<!DOCTYPE svg PUBLIC "-//W3C//DTD SVG 20010904//EN"
 "http://www.w3.org/TR/2001/REC-SVG-20010904/DTD/svg10.dtd">
<svg version="1.0" xmlns="http://www.w3.org/2000/svg"
 width="800.000000pt" height="800.000000pt" viewBox="0 0 800.000000 800.000000"
 preserveAspectRatio="xMidYMid meet">
<metadata>
Created by potrace 1.11, written by Peter Selinger 2001-2013
</metadata>
<g transform="translate(0.000000,800.000000) scale(0.100000,-0.100000)"
fill="#000000" stroke="none">
<path d="M720 5961 c-192 -52 -349 -211 -390 -393 -5 -27 -15 -68 -20 -93 -6
-25 -10 -67 -10 -93 0 -26 -7 -103 -15 -172 -8 -69 -15 -150 -15 -181 0 -31
-3 -59 -7 -63 -4 -3 -8 -28 -10 -54 -2 -26 -8 -90 -14 -142 -6 -52 -15 -142
-19 -200 -5 -58 -11 -121 -14 -140 -7 -45 -32 -289 -46 -455 -6 -71 -15 -157
-20 -190 -12 -77 -31 -284 -37 -400 -3 -49 -9 -94 -12 -100 -4 -5 -9 -32 -10
-60 -1 -27 -6 -88 -12 -134 -6 -47 -14 -132 -19 -190 -5 -58 -14 -149 -21
-201 -12 -104 -6 -267 10 -283 6 -6 11 -19 11 -29 0 -17 30 -89 41 -98 3 -3
14 -19 23 -37 17 -35 106 -126 141 -146 192 -106 55 -98 1502 -95 l1258 3 70
24 c106 35 189 78 263 135 63 49 132 113 132 122 0 2 15 23 33 47 18 24 84
144 146 268 62 123 125 237 140 252 62 68 176 107 252 87 132 -34 160 -65 298
-341 62 -123 130 -246 150 -274 41 -54 120 -134 161 -162 14 -9 31 -23 37 -29
18 -18 147 -79 223 -106 l65 -23 1268 -3 1267 -2 75 25 c191 64 308 181 376
380 16 45 17 337 2 358 -5 7 -10 39 -12 72 -1 33 -8 112 -15 175 -8 63 -14
142 -15 174 -1 33 -5 64 -8 69 -5 9 -18 125 -33 317 -5 63 -16 174 -25 245 -9
72 -19 177 -24 235 -5 58 -14 150 -20 205 -6 55 -13 118 -15 140 -2 22 -6 47
-9 55 -3 8 -8 53 -10 100 -8 121 -26 325 -37 395 -5 33 -14 119 -20 190 -6 72
-16 171 -21 220 -6 50 -11 97 -11 105 0 40 -32 152 -60 210 -22 45 -54 88
-107 140 -82 80 -132 110 -238 141 -66 19 -137 19 -3288 18 -3043 0 -3224 -1
-3285 -18z m1860 -534 c297 -66 484 -201 589 -428 47 -101 63 -172 68 -319 10
-249 -37 -382 -188 -533 -69 -69 -84 -90 -71 -94 50 -19 150 -93 207 -156 125
-134 179 -292 178 -522 -1 -465 -282 -767 -776 -834 -50 -7 -344 -11 -798 -11
l-719 0 0 1461 0 1460 718 -4 c619 -3 727 -6 792 -20z m2680 -967 c5 -868 7
-960 23 -1012 69 -227 195 -355 408 -414 91 -26 347 -26 439 0 209 58 351 203
405 416 29 114 35 280 35 1133 l0 837 305 0 305 0 0 -923 c0 -577 -4 -954 -10
-1007 -33 -269 -141 -502 -309 -670 -165 -164 -359 -262 -626 -317 -140 -28
-532 -25 -672 5 -524 114 -830 436 -907 955 -14 89 -16 246 -16 1031 l0 926
308 -2 307 -3 5 -955z"/>
<path d="M1687 4913 c-4 -3 -7 -148 -7 -320 l0 -314 358 3 357 3 68 33 c108
54 148 125 148 269 1 147 -43 228 -154 283 -44 21 -87 33 -147 40 -95 11 -613
14 -623 3z"/>
<path d="M1680 3415 l0 -346 398 3 c384 3 399 4 452 26 81 32 132 74 165 134
26 46 30 65 33 154 6 141 -12 199 -81 269 -35 34 -73 60 -112 76 -59 24 -64
24 -457 27 l-398 3 0 -346z"/>
</g>
</svg>
